# xmcd
#
# Track frame offsets:
#	150
#	19308
#	37008
#	56958
#	77433
#	101138
#	122570
#	143708
#	162683
#	183953
#	201308
#	219908
#
# Disc length: 3254 seconds
#
# Revision: 0
# Processed by: cddbd v1.5.2PL0 Copyright (c) Steve Scherf et al.
# Submitted via: audiograbber 1.83.01
#
DISCID=ad0cb40c
DTITLE=Michael Bolton - To Love Somebody The Best Of ( CD2 )
DYEAR=2005
DGENRE=Kuschelmucke
TTITLE0=How Am I Supposed To Live Without You
TTITLE1=How Can We Be Lovers
TTITLE2=Missing You Now
TTITLE3=New Love
TTITLE4=This River
TTITLE5=Stand Up For Love
TTITLE6=Show Her The Way
TTITLE7=Walk Away
TTITLE8=Whiter Shade Of Pale
TTITLE9=I Found Someone
TTITLE10=Gina
TTITLE11=Let There Be Love
EXTD=
EXTT0=
EXTT1=
EXTT2=
EXTT3=
EXTT4=
EXTT5=
EXTT6=
EXTT7=
EXTT8=
EXTT9=
EXTT10=
EXTT11=
PLAYORDER=
